<?xml version="1.0" encoding="utf-8"?>
<!-- Generator: Adobe Illustrator 16.0.4, SVG Export Plug-In . SVG Version: 6.00 Build 0)  -->
<!DOCTYPE svg PUBLIC "-//W3C//DTD SVG 1.1//EN" "http://www.w3.org/Graphics/SVG/1.1/DTD/svg11.dtd">
<svg version="1.1" id="Layer_1" xmlns="http://www.w3.org/2000/svg" xmlns:xlink="http://www.w3.org/1999/xlink" x="0px" y="0px"
	 width="54.951px" height="47.771px" viewBox="0 0 54.951 47.771" enable-background="new 0 0 54.951 47.771" xml:space="preserve">
<g>
	<g>
		<g>
			<rect x="10.277" y="8.276" fill="#1E64C8" width="1.247" height="8.096"/>
			<rect x="7.783" y="8.276" fill="#1E64C8" width="1.247" height="8.096"/>
			<rect x="5.289" y="8.276" fill="#1E64C8" width="1.247" height="8.096"/>
			<rect x="2.795" y="8.276" fill="#1E64C8" width="1.247" height="8.096"/>
			<rect x="12.771" y="8.276" fill="#1E64C8" width="1.247" height="8.096"/>
			<rect x="15.266" y="8.276" fill="#1E64C8" width="1.247" height="8.096"/>
			<rect x="17.76" y="8.276" fill="#1E64C8" width="1.247" height="8.096"/>
			<rect x="1.518" y="17.619" fill="#1E64C8" width="18.766" height="1.248"/>
			<polygon fill="#1E64C8" points="19.007,7.029 2.795,7.029 1.548,5.782 20.254,5.782 			"/>
			<rect x="0.271" y="20.113" fill="#1E64C8" width="21.26" height="1.248"/>
		</g>
	</g>
	<polygon fill="#1E64C8" points="21.531,3.765 10.901,0 0.271,3.765 0.271,5.089 10.901,1.325 21.531,5.089 	"/>
	<g>
		<path fill="#1E64C8" d="M10.591,31.164H7.905v4.002H6.657v-8.817h1.248v3.758h2.686v-3.758h1.248v8.817h-1.248V31.164z"/>
	</g>
	<path fill="#1E64C8" d="M37.92,39.695c0.551-0.002,1.07,0.179,1.309,0.366v-1.124c-0.238-0.146-0.824-0.31-1.418-0.31
		c-1.656,0-2.566,0.941-2.566,2.307c0,1.139,0.482,1.686,1.258,2.355l0.711,0.613c0.586,0.49,0.949,0.868,0.949,1.602
		c0,0.857-0.566,1.197-1.418,1.197c-0.645,0-1.18-0.179-1.488-0.392v1.144c0.271,0.156,0.838,0.317,1.6,0.315
		c1.652-0.004,2.562-0.942,2.564-2.307c0.002-1.138-0.482-1.686-1.258-2.354l-0.709-0.614c-0.588-0.503-0.953-0.866-0.951-1.599
		C36.505,40.034,37.067,39.697,37.92,39.695z"/>
	<path fill="#1E64C8" d="M29.008,38.79h2.035c1.629,0,2.795,0.611,2.795,2.605c0,1.396-0.678,2.074-1.533,2.387l1.873,3.826h-1.426
		l-1.654-3.596h-0.842v3.596h-1.248V38.79z M30.256,39.849v3.107h0.666c0.977,0,1.627-0.205,1.627-1.561
		c0-1.344-0.65-1.547-1.627-1.547H30.256z"/>
	<g>
		<path fill="#1E64C8" d="M0.271,44.949v-6.158h1.248v6.213c0,1.303,0.448,1.682,1.356,1.682c0.909,0,1.356-0.379,1.356-1.682
			v-6.213H5.48v6.158c0,2.008-0.841,2.822-2.604,2.822C1.085,47.771,0.271,46.984,0.271,44.949z"/>
		<path fill="#1E64C8" d="M7.094,38.791h1.438l2.781,7.026c-0.095-0.719-0.176-1.56-0.176-2.347v-4.68h1.194v8.817h-1.438
			l-2.808-7.054c0.108,0.719,0.204,1.573,0.204,2.374v4.68H7.094V38.791z"/>
		<path fill="#1E64C8" d="M14.097,38.791h1.248v8.817h-1.248V38.791z"/>
		<path fill="#1E64C8" d="M16.505,38.791h1.302l1.112,4.585c0.163,0.692,0.366,1.858,0.488,2.781
			c0.122-0.923,0.326-2.089,0.516-2.781l1.099-4.585h1.262l-2.238,8.817h-1.302L16.505,38.791z"/>
		<path fill="#1E64C8" d="M23.443,38.791h4.124v1.059h-2.876v2.699h2.32v1.044h-2.32v2.958h2.876v1.058h-4.124V38.791z"/>
		<path fill="#1E64C8" d="M40.902,38.791h1.248v8.817h-1.248V38.791z"/>
		<path fill="#1E64C8" d="M0,30.758c0-3.473,0.922-4.572,3.215-4.572c0.651,0,1.343,0.177,1.641,0.354v1.152
			c-0.325-0.189-0.949-0.394-1.546-0.394c-1.465,0-2.021,0.543-2.021,3.46c0,2.889,0.394,3.485,1.668,3.485
			c0.394,0,0.719-0.054,0.963-0.122v-2.943H2.618V30.12h2.55v4.761c-0.258,0.163-1.289,0.448-2.197,0.448
			C0.583,35.329,0,34.081,0,30.758z"/>
		<path fill="#1E64C8" d="M13.606,26.349h4.124v1.059h-2.876v2.699h2.32v1.044h-2.32v2.958h2.876v1.058h-4.124V26.349z"/>
		<path fill="#1E64C8" d="M19.171,26.349h1.438l2.781,7.026c-0.095-0.719-0.176-1.56-0.176-2.347v-4.68h1.194v8.817H22.97
			l-2.808-7.054c0.108,0.719,0.204,1.573,0.204,2.374v4.68h-1.194V26.349z"/>
		<path fill="#1E64C8" d="M25.55,26.349h5.06v1.059h-1.912v7.759h-1.249v-7.759H25.55V26.349z"/>
	</g>
	<g>
		<path fill="#1E64C8" d="M51.301,43.946l-2.414-5.155h1.37l1.044,2.374c0.244,0.569,0.476,1.18,0.625,1.723
			c0.162-0.543,0.406-1.153,0.65-1.723l1.045-2.374h1.33l-2.402,5.155v3.662h-1.248V43.946z"/>
		<path fill="#1E64C8" d="M43.334,38.791h5.061v1.059h-1.913v7.759h-1.248V39.85h-1.899V38.791z"/>
	</g>
</g>
</svg>
